<?xml version="1.0" encoding="utf-8"?>
<!-- Generator: Adobe Illustrator 16.2.1, SVG Export Plug-In . SVG Version: 6.00 Build 0)  -->
<!DOCTYPE svg PUBLIC "-//W3C//DTD SVG 1.1//EN" "http://www.w3.org/Graphics/SVG/1.1/DTD/svg11.dtd">
<svg version="1.1" id="Layer_1" xmlns="http://www.w3.org/2000/svg" xmlns:xlink="http://www.w3.org/1999/xlink" x="0px" y="0px"
	 width="48px" height="54.699px" viewBox="0 0 48 54.699" enable-background="new 0 0 48 54.699" xml:space="preserve">
<g>
	<g>
		<path fill="#E7F5FA" d="M9.492,54.035l10.513-19.954l3.523,0.115L18.03,45.103l21.216-16.045H0.525c0,0-0.365,0.037-0.485-0.361
			c-0.148-0.461,0.168-0.671,0.168-0.671L38.836,0.155c0,0,0.344-0.287,0.672-0.079c0.319,0.195,0.179,0.539,0.179,0.539
			l-10.368,20.85l-3.723,0.162l6.087-12.156L8.452,25.982h38.979c0,0,0.407,0.006,0.542,0.38c0.113,0.309-0.158,0.593-0.158,0.593
			l-37.47,27.613c0,0-0.34,0.269-0.666,0.036C9.327,54.346,9.492,54.035,9.492,54.035z"/>
		<path fill="#E7F5FA" d="M10.227,22.032V10.804h18.086l4.527-3.071c0,0-25.059,0-25.351,0c-0.299,0-0.33,0.319-0.33,0.319v16.104
			L10.227,22.032z M36.067,10.804c1.976,0,3.582,2.119,3.582,4.087c0,1.984-1.607,4.095-3.582,4.095h-8.885l-1.586,2.643
			c0,0-0.221,0.426,0.227,0.426c0.441,0,10.245,0,10.245,0c3.682,0,6.659-3.484,6.659-7.163c0-3.666-2.979-7.159-6.659-7.159h-3.007
			l-0.678,3.071H36.067z M33.095,7.557l-0.254,0.175h0.22L33.095,7.557z M36.067,33.446h-2.272l-4.21,3.072h6.483
			c1.976,0,3.583,2.113,3.583,4.088c0,1.978-1.608,4.091-3.583,4.091H19.474l-4.108,3.071h20.702c3.682,0,6.659-2.943,6.659-6.618
			C42.727,37.47,39.748,33.446,36.067,33.446z M14.297,47.555l1.068-0.806h-0.689L14.297,47.555z M10.317,44.698v-8.18h11.815
			l1.527-2.567c0,0,0.167-0.25,0.042-0.402c-0.096-0.106-0.371-0.103-0.371-0.103s-15.219,0-15.61,0
			c-0.464,0-0.476,0.463-0.476,0.463v13.524c0,0,0.08,0.336,0.442,0.336c0.356,0,6.99,0,6.99,0l1.455-3.071H10.317z"/>
	</g>
</g>
</svg>
